<svg xmlns="http://www.w3.org/2000/svg" viewBox="0 0 183.5 141.1"><defs><style>.cls-1{fill:none;stroke:#9ca696;stroke-miterlimit:10;stroke-width:1.5px;}.cls-2{fill:#364c37;}</style></defs>
<title>name</title>
<g id="Layer_2" data-name="Layer 2">
    <g id="name">
        <g id="drea">
            <path class="cls-1" d="M1,88.87A28.6,28.6,0,0,1,2.89,75,53.87,53.87,0,0,1,15.33,54.86,21.34,21.34,0,0,1,18.93,52c6.27-3.87,11.52-2.39,14.93,4.52,2.12-4,4.06-7.65,6.18-11.34C46.12,34.49,51.19,23.24,56.26,12a59.91,59.91,0,0,1,4.05-7.47,12.63,12.63,0,0,1,1.57-2.12,4.62,4.62,0,0,1,5.71-1.1c1.76,1.2,2.31,3.22,1.29,5.62C66.4,12.55,63.26,18,60.5,23.43a263.51,263.51,0,0,0-24,71.8c-1.75,9.86-2.76,19.91-1.84,30A43.72,43.72,0,0,0,35.8,131a4.73,4.73,0,0,0,1.56,2.49,3.75,3.75,0,0,1,1.11,4.89,4.07,4.07,0,0,1-4.7,1.84,6.46,6.46,0,0,1-4.33-3.69,32,32,0,0,1-2.86-13c-.65-15.67,1.66-31,5.44-46.08a8.18,8.18,0,0,0,.46-2.58c-2.4,3.32-4.7,6.64-7.28,9.77A43.1,43.1,0,0,1,16,93.2a18.77,18.77,0,0,1-5.34,2.4C5.57,96.8,1.6,94.12,1,88.87Zm8.11-1.38c.74.27,1.47-.37,2-.74a21.52,21.52,0,0,0,3.31-2.4c6.45-6,11.06-13.45,15.58-21,.28-.46.55-1-.28-1.2-1.93-.46-2.67-1.75-3-3.5-.27-1.2-1-1.38-2.12-1.11a9.57,9.57,0,0,0-4.24,3.13A50.9,50.9,0,0,0,10.73,76.8a27.39,27.39,0,0,0-2,8.66C8.88,86.11,8.33,87,9.07,87.49Z"/>
            <path class="cls-1" d="M91.86,50.34a4.89,4.89,0,0,1-.18,1C90,57.07,80.62,63.89,73.89,63.61c-3.5-.18-4.7,1.11-6,3.41-5,9.13-9,18.53-11.15,28.39a15.73,15.73,0,0,1-.56,1.94,4.31,4.31,0,0,1-4.61,2.86,3.6,3.6,0,0,1-3.22-3.88c.27-3,.83-6,1.11-9a145.37,145.37,0,0,1,8.38-35.57,20.6,20.6,0,0,1,1.48-3.32,4.18,4.18,0,0,1,5.25-1.85,3.16,3.16,0,0,1,1.29,4.8c-1.66,2.85-2,5.9-3,9A9.76,9.76,0,0,1,73.15,56.7,7.48,7.48,0,0,0,78.77,55a15.23,15.23,0,0,0,5.35-5.53,10.68,10.68,0,0,1,.92-1.2,4.15,4.15,0,0,1,4.61-1.47C91.49,47.39,92,48.68,91.86,50.34Z"/>
            <path class="cls-1" d="M85,82.69c.09-2.21.65-4.42.55-6.72a5.17,5.17,0,0,1,2.31-4.52,5.67,5.67,0,0,0,1.66-2.21,52.94,52.94,0,0,1,14-15.39c3-2.12,6.17-3.78,9.86-3.88,5.9-.18,9,4,7.37,9.68s-5.25,10.14-9.59,14.1c-5.07,4.52-10.32,8.58-17.32,9.68a.8.8,0,0,0-.83.46c-.92,1.66.83,5.72,2.67,6.36,2.49.83,4.79.19,7.1-.64,7.74-2.68,14.28-7.38,20.74-12.26,2.76-2.12,5.52-4.33,8.38-6.45a4,4,0,0,1,4.89-.28,3.72,3.72,0,0,1,.46,6c-10.14,8.2-20.19,16.68-32.81,20.92A19.32,19.32,0,0,1,98,98.64C88.47,98.36,84.42,92.46,85,82.69Zm10.78-7.92c6.55-2.31,16.22-12.17,16.5-16.68C104.6,61.68,99.81,67.85,95.75,74.77Z"/>
            <path class="cls-1" d="M127.21,87.58a25,25,0,0,1,2.12-12.17c3.13-7.83,7.46-14.84,14.1-20.27a14.32,14.32,0,0,1,8-3.69,7.39,7.39,0,0,1,6.73,2.4c.73.82,1.1.82,1.93.18a3.61,3.61,0,0,1,4.52,0A3.66,3.66,0,0,1,166,58.55c-1.2,3-2.67,5.71-3.87,8.66a65.91,65.91,0,0,0-4.89,19.26,13.54,13.54,0,0,0,.65,5.44c.55,1.75,1.2,1.94,2.77.92a20.82,20.82,0,0,0,4.79-5.07c3.22-4.51,6.08-9.4,8.94-14.28a8.13,8.13,0,0,1,2.49-2.86,3.88,3.88,0,0,1,4.42.09,3.64,3.64,0,0,1,1.29,4.06,10.4,10.4,0,0,1-.74,1.84,162.67,162.67,0,0,1-10.59,16.68A25.41,25.41,0,0,1,165,99.56c-5.9,4.06-12.45,1.84-14.66-4.88a25.48,25.48,0,0,1-.74-12.17c-2.3,2.39-4.14,4.51-6.17,6.45a21.43,21.43,0,0,1-5.81,4.52C132.55,95.87,127.76,93.2,127.21,87.58Zm7.92-2.3c1-.19,1.38-.83,1.94-1.29,5.62-5.26,10.14-11.43,14.65-17.61a7.25,7.25,0,0,0,1.57-5.07c-.18-2.58-.83-3-3.13-1.66a18.07,18.07,0,0,0-4.06,3.41,48.73,48.73,0,0,0-9.68,16.32A15.87,15.87,0,0,0,135.13,85.28Z"/>
        </g>

        <g id="peret">
            <path class="cls-2" d="M57.37,106.67h6.14c6.71,0,11.18,3.6,11.18,9.34,0,6.18-6,8.94-12.8,8.94h-1v8.47H53.64V113C53.64,109.08,54,106.67,57.37,106.67Zm3.55,1.89V123h1.19c2.36,0,5.3-3.11,5.3-7.06s-2.45-7.36-5.26-7.36Z"/>
            <path class="cls-2" d="M80.58,106.67l11.22,0v3.15H84.13v7.28h5.35v2H84.13v10.09H91.8v4.25l-14.91,0V113C76.89,109.08,77.2,106.67,80.58,106.67Z"/>
            <path class="cls-2" d="M101.32,133.42H94V113c0-4,.31-6.36,3.73-6.36h6.1c6.75,0,11.22,3.6,11.22,9.34,0,4.21-2.81,6.84-6.71,8.07,3.82,1.09,6.62,3.9,6.62,9.34h-8.37c0-6.41-2-8.16-5.31-8.38Zm0-24.86V123h1.14c2.41,0,5.35-3.11,5.35-7.06s-2.5-7.36-5.3-7.36Z"/>
            <path class="cls-2" d="M121,106.67l11.22,0v3.15h-7.67v7.28h5.35v2h-5.35v10.09h7.67v4.25l-14.9,0V113C117.34,109.08,117.65,106.67,121,106.67Z"/>
            <path class="cls-2" d="M134.53,106.63H156v3.15h-7.1v23.64h-7.28V109.78h-7.06Z"/>
        </g>
    </g>
</g>
</svg>